<?xml version="1.0" encoding="UTF-8" standalone="no"?>
<!-- Created with Inkscape (http://www.inkscape.org/) -->

<svg
   width="19.813826mm"
   height="5.7370286mm"
   viewBox="0 0 19.813826 5.7370286"
   version="1.1"
   id="svg5"
   sodipodi:docname="legend.svg"
   inkscape:version="1.1.1 (3bf5ae0d25, 2021-09-20)"
   xmlns:inkscape="http://www.inkscape.org/namespaces/inkscape"
   xmlns:sodipodi="http://sodipodi.sourceforge.net/DTD/sodipodi-0.dtd"
   xmlns="http://www.w3.org/2000/svg"
   xmlns:svg="http://www.w3.org/2000/svg">
  <sodipodi:namedview
     id="namedview7"
     pagecolor="#ffffff"
     bordercolor="#666666"
     borderopacity="1.0"
     inkscape:pageshadow="2"
     inkscape:pageopacity="0.0"
     inkscape:pagecheckerboard="0"
     inkscape:document-units="mm"
     showgrid="false"
     inkscape:zoom="6.6760012"
     inkscape:cx="160.1258"
     inkscape:cy="-20.371476"
     inkscape:current-layer="layer1"
     fit-margin-top="0"
     fit-margin-left="0"
     fit-margin-right="0"
     fit-margin-bottom="0"
     showguides="true"
     inkscape:guide-bbox="true">
    <sodipodi:guide
       position="29.724006,29.991817"
       orientation="1,0"
       id="guide38145" />
    <sodipodi:guide
       position="53.265419,26.860888"
       orientation="1,0"
       id="guide38147" />
    <sodipodi:guide
       position="41.732504,16.358406"
       orientation="1,0"
       id="guide38149" />
    <sodipodi:guide
       position="33.921786,19.476089"
       orientation="0,-1"
       id="guide38151" />
  </sodipodi:namedview>
  <defs
     id="defs2" />
  <g
     inkscape:label="Layer 1"
     inkscape:groupmode="layer"
     id="layer1"
     transform="translate(-111.7923,-129.01407)">
    <circle
       style="fill:#ff0000;stroke-width:0;stroke-linejoin:round"
       id="path40169"
       cx="28.849598"
       cy="191.79085"
       r="14"
       transform="rotate(-43.787146)" />
    <ellipse
       style="fill:#ffff00;stroke-width:0;stroke-linejoin:round"
       id="path46883-8"
       cx="-133.51944"
       cy="-140.67192"
       transform="matrix(-0.1018777,-0.99479693,-0.99479693,0.1018777,0,0)"
       rx="13.099"
       ry="13.099099" />
    <circle
       style="fill:#ffffff;stroke-width:0;stroke-linejoin:round"
       id="path46883"
       cx="179.57474"
       cy="-73.273064"
       r="9.5255966"
       transform="rotate(59.855689)" />
    <g
       aria-label="STACCA"
       transform="rotate(30.806907,153.54264,118.49341)"
       id="text46987"
       style="font-size:4.93889px;line-height:125%;font-family:Mickey;-inkscape-font-specification:Mickey;letter-spacing:0.79375px;word-spacing:0px;stroke-width:0.264583px">
      <path
         d="m 143.04665,120.94863 -0.13153,-0.6853 q 0.34237,-0.0948 0.48802,-0.29968 0.14542,-0.20727 0.11528,-0.53144 -0.0319,-0.34337 -0.19207,-0.50286 -0.16277,-0.16167 -0.35727,-0.14359 -0.12486,0.0116 -0.20439,0.0941 -0.0821,0.0803 -0.13001,0.26882 -0.0316,0.12888 -0.10077,0.58338 -0.0885,0.58466 -0.2736,0.83437 -0.26041,0.35118 -0.67822,0.39003 -0.26894,0.025 -0.51592,-0.10462 -0.24961,-0.1318 -0.39864,-0.40616 -0.14925,-0.27676 -0.18698,-0.68256 -0.0616,-0.66274 0.1979,-1.02352 0.25929,-0.36318 0.74277,-0.42509 l 0.0973,0.70786 q -0.2671,0.0708 -0.37069,0.23307 -0.10622,0.16003 -0.0783,0.46018 0.0288,0.30976 0.17236,0.47322 0.0921,0.10526 0.229,0.0925 0.12487,-0.0116 0.20389,-0.12553 0.10035,-0.14496 0.17459,-0.675 0.0742,-0.53005 0.18331,-0.78965 0.10645,-0.26179 0.32161,-0.42227 0.21255,-0.16265 0.54632,-0.19369 0.30255,-0.0281 0.58231,0.1154 0.27976,0.14353 0.438,0.43883 0.15584,0.29552 0.19848,0.75415 0.0621,0.66754 -0.21202,1.0539 -0.27649,0.38658 -0.86072,0.51113 z"
         style="font-weight:bold;font-family:Arial;-inkscape-font-specification:'Arial Bold';text-align:center;text-anchor:middle"
         id="path38153" />
      <path
         d="m 144.39601,115.82044 -2.79593,-0.90025 -0.32152,0.99855 -0.56928,-0.1833 0.86107,-2.67427 0.56929,0.1833 -0.32078,0.99625 2.79593,0.90025 z"
         style="font-weight:bold;font-family:Arial;-inkscape-font-specification:'Arial Bold';text-align:center;text-anchor:middle"
         id="path38155" />
      <path
         d="m 147.49269,110.94512 -0.51292,0.58301 -0.80682,-0.29869 -0.93346,1.061 0.41018,0.74953 -0.50019,0.56852 -1.74474,-3.36909 0.49859,-0.56671 z m -1.91828,0.0629 -1.30673,-0.50082 0.66955,1.22505 z"
         style="font-weight:bold;font-family:Arial;-inkscape-font-specification:'Arial Bold';text-align:center;text-anchor:middle"
         id="path38157" />
      <path
         d="m 150.0841,108.19958 0.72281,-0.0688 q 0.08,0.59492 -0.15145,0.99987 -0.23012,0.40179 -0.75389,0.62445 -0.64805,0.27548 -1.25304,0.0112 -0.60593,-0.2665 -0.93236,-1.0344 -0.3453,-0.81229 -0.11641,-1.43891 0.22794,-0.62884 0.9115,-0.91942 0.59701,-0.25379 1.11987,-0.0594 0.31062,0.11428 0.58763,0.45772 l -0.58423,0.43178 q -0.16525,-0.22848 -0.41173,-0.29665 -0.24425,-0.0691 -0.50614,0.0422 -0.36175,0.15378 -0.47775,0.50968 -0.11377,0.35495 0.13341,0.93642 0.26228,0.61699 0.59554,0.78453 0.33326,0.16754 0.68836,0.0166 0.26189,-0.11133 0.37977,-0.35797 0.11789,-0.24665 0.0481,-0.63887 z"
         style="font-weight:bold;font-family:Arial;-inkscape-font-specification:'Arial Bold';text-align:center;text-anchor:middle"
         id="path38159" />
      <path
         d="m 154.99019,107.73196 0.67848,0.25857 q -0.19192,0.56876 -0.57879,0.82927 -0.38433,0.25824 -0.95253,0.22578 -0.70303,-0.0402 -1.12829,-0.54515 -0.42513,-0.50739 -0.37753,-1.34043 0.0503,-0.8812 0.53317,-1.34154 0.48297,-0.46276 1.22452,-0.42039 0.64766,0.037 1.03027,0.44293 0.22783,0.24007 0.32401,0.67069 l -0.71507,0.12823 q -0.0469,-0.27804 -0.23767,-0.44836 -0.18835,-0.17019 -0.47245,-0.18642 -0.39245,-0.0224 -0.65412,0.24524 -0.25927,0.2678 -0.29531,0.8986 -0.0382,0.66933 0.18629,0.96719 0.22454,0.29785 0.60976,0.31986 0.2841,0.0162 0.49907,-0.15265 0.21496,-0.16888 0.32619,-0.55142 z"
         style="font-weight:bold;font-family:Arial;-inkscape-font-specification:'Arial Bold';text-align:center;text-anchor:middle"
         id="path38161" />
      <path
         d="m 159.76436,111.0643 -0.67641,-0.38139 0.12554,-0.85113 -1.23097,-0.69409 -0.64861,0.55619 -0.6596,-0.37192 2.93589,-2.40322 0.6575,0.37074 z m -0.45786,-1.8639 0.22001,-1.38201 -1.06027,0.90822 z"
         style="font-weight:bold;font-family:Arial;-inkscape-font-specification:'Arial Bold';text-align:center;text-anchor:middle"
         id="path38163" />
    </g>
    <g
       aria-label="STACCA"
       id="text46987-9"
       style="font-size:4.93889px;line-height:125%;font-family:Mickey;-inkscape-font-specification:Mickey;letter-spacing:1.85208px;word-spacing:0px;stroke-width:0.264583px">
      <path
         d="m 142.86507,124.06187 0.44994,0.53338 q -0.25225,0.25016 -0.27906,0.50009 -0.0255,0.25193 0.15941,0.51992 0.19581,0.28387 0.4135,0.34464 0.22105,0.0614 0.38185,-0.0495 0.10322,-0.0712 0.13224,-0.18204 0.0324,-0.11022 -0.0181,-0.29806 -0.0355,-0.12787 -0.19747,-0.5581 -0.20877,-0.55325 -0.1695,-0.86158 0.0554,-0.43368 0.40076,-0.67193 0.22233,-0.15336 0.50116,-0.16112 0.28217,-0.007 0.54636,0.15925 0.26555,0.16838 0.49696,0.50387 0.37793,0.54789 0.32806,0.98951 -0.0485,0.4436 -0.43991,0.73409 l -0.43112,-0.56979 q 0.1983,-0.19245 0.20931,-0.38461 0.0144,-0.19154 -0.1568,-0.43968 -0.17664,-0.25608 -0.38181,-0.32842 -0.13185,-0.0468 -0.245,0.0313 -0.10323,0.0712 -0.11643,0.20921 -0.0166,0.17553 0.17791,0.67415 0.19452,0.49862 0.22638,0.77839 0.0352,0.2804 -0.074,0.52562 -0.10582,0.24583 -0.38175,0.43616 -0.25012,0.17253 -0.56434,0.1842 -0.31421,0.0117 -0.59668,-0.16849 -0.28048,-0.18153 -0.54201,-0.56069 -0.38066,-0.55186 -0.33059,-1.02291 0.0521,-0.47242 0.50069,-0.86684 z"
         style="font-weight:bold;font-family:Arial;-inkscape-font-specification:'Arial Bold';text-align:center;text-anchor:middle"
         id="path38169" />
      <path
         d="m 146.01076,129.2139 1.64141,-2.43586 -0.86995,-0.58622 0.33421,-0.49597 2.32987,1.56999 -0.33421,0.49597 -0.86795,-0.58487 -1.64141,2.43586 z"
         style="font-weight:bold;font-family:Arial;-inkscape-font-specification:'Arial Bold';text-align:center;text-anchor:middle"
         id="path38171" />
      <path
         d="m 152.39653,131.65209 -0.75888,-0.16463 -0.1314,-0.85024 -1.38106,-0.2996 -0.45542,0.72293 -0.74002,-0.16054 2.09523,-3.16305 0.73767,0.16003 z m -0.98789,-1.64555 -0.19793,-1.38535 -0.74477,1.18084 z"
         style="font-weight:bold;font-family:Arial;-inkscape-font-specification:'Arial Bold';text-align:center;text-anchor:middle"
         id="path38173" />
      <path
         d="m 156.62759,129.91453 0.72129,0.0833 q -0.0458,0.59852 -0.35645,0.94637 -0.30879,0.34503 -0.86745,0.45367 -0.69123,0.13442 -1.22788,-0.25012 -0.5371,-0.3869 -0.69638,-1.20596 -0.16848,-0.86641 0.18594,-1.43159 0.35396,-0.56755 1.08306,-0.70933 0.63679,-0.12383 1.10767,0.17522 0.28,0.17649 0.47938,0.57011 l -0.66138,0.30058 q -0.11402,-0.2579 -0.34088,-0.37593 -0.2245,-0.11849 -0.50383,-0.0642 -0.38586,0.075 -0.57346,0.39896 -0.18523,0.32346 -0.0646,0.94367 0.12797,0.65809 0.41901,0.89139 0.29104,0.2333 0.6698,0.15964 0.27933,-0.0543 0.44602,-0.27099 0.16669,-0.21667 0.18016,-0.61482 z"
         style="font-weight:bold;font-family:Arial;-inkscape-font-specification:'Arial Bold';text-align:center;text-anchor:middle"
         id="path38175" />
      <path
         d="m 160.95618,127.7131 0.69362,-0.21467 q 0.19951,0.56614 0.0555,1.00976 -0.14341,0.44025 -0.61081,0.76498 -0.57831,0.40177 -1.22446,0.26632 -0.64752,-0.13742 -1.1236,-0.82268 -0.50359,-0.72487 -0.40721,-1.38499 0.095,-0.6621 0.705,-1.08589 0.53276,-0.37012 1.08426,-0.28638 0.32739,0.0486 0.66858,0.32835 l -0.48397,0.54179 q -0.20836,-0.19001 -0.46355,-0.20652 -0.25321,-0.0179 -0.48692,0.14447 -0.32282,0.22428 -0.36385,0.59635 -0.0391,0.37069 0.32145,0.88958 0.38251,0.55059 0.74292,0.6467 0.36042,0.0961 0.6773,-0.12405 0.2337,-0.16236 0.29885,-0.42785 0.0652,-0.2655 -0.0831,-0.63527 z"
         style="font-weight:bold;font-family:Arial;-inkscape-font-specification:'Arial Bold';text-align:center;text-anchor:middle"
         id="path38177" />
      <path
         d="m 165.6297,123.84576 -0.40678,0.66145 -0.84575,-0.15773 -0.74028,1.20377 0.53119,0.66923 -0.39667,0.64502 -2.29013,-3.02493 0.3954,-0.64296 z m -1.87993,0.38684 -1.37267,-0.27228 0.86736,1.09396 z"
         style="font-weight:bold;font-family:Arial;-inkscape-font-specification:'Arial Bold';text-align:center;text-anchor:middle"
         id="path38179" />
    </g>
    <g
       aria-label="!"
       transform="matrix(0.26458333,0,0,0.26458333,157.90413,133.14273)"
       id="flowRoot65496"
       style="font-size:60px;line-height:125%;font-family:Mickey;-inkscape-font-specification:Mickey;letter-spacing:0px;word-spacing:0px;stroke-width:1px">
      <path
         d="M -18.798828,-44.967126 -20.9375,-66.764001 v -10.078125 h 8.90625 v 10.078125 l -2.109375,21.796875 z m -1.787109,11.074219 v -8.232422 h 8.232421 v 8.232422 z"
         style="font-weight:bold;font-family:Arial;-inkscape-font-specification:'Arial Bold'"
         id="path38166" />
    </g>
  </g>
</svg>
