<?xml version="1.0" encoding="UTF-8" standalone="no"?>
<!-- Created with Inkscape (http://www.inkscape.org/) -->

<svg
   width="210mm"
   height="297mm"
   viewBox="0 0 210 297"
   version="1.1"
   id="svg38230"
   inkscape:version="1.1.1 (3bf5ae0d25, 2021-09-20)"
   sodipodi:docname="panic.svg"
   xmlns:inkscape="http://www.inkscape.org/namespaces/inkscape"
   xmlns:sodipodi="http://sodipodi.sourceforge.net/DTD/sodipodi-0.dtd"
   xmlns="http://www.w3.org/2000/svg"
   xmlns:svg="http://www.w3.org/2000/svg">
  <sodipodi:namedview
     id="namedview38232"
     pagecolor="#ffffff"
     bordercolor="#666666"
     borderopacity="1.0"
     inkscape:pageshadow="2"
     inkscape:pageopacity="0.0"
     inkscape:pagecheckerboard="0"
     inkscape:document-units="mm"
     showgrid="false"
     inkscape:zoom="7.4425508"
     inkscape:cx="193.34769"
     inkscape:cy="336.30943"
     inkscape:current-layer="layer1" />
  <defs
     id="defs38227" />
  <g
     inkscape:label="Layer 1"
     inkscape:groupmode="layer"
     id="layer1">
    <circle
       style="fill:#ff0000;stroke-width:0;stroke-linejoin:round"
       id="path38256"
       cx="46.829544"
       cy="79.971008"
       r="14" />
    <g
       aria-label="PANIC"
       transform="matrix(0.26458333,0,0,0.26458333,0.03273066,2.1762556)"
       id="flowRoot40512"
       style="font-size:26.6667px;line-height:125%;font-family:Mickey;-inkscape-font-specification:Mickey;letter-spacing:0px;word-spacing:0px;stroke-width:1px">
      <path
         d="m 138.78386,296.47535 q -0.22135,0 -1.09375,-0.0911 -0.0781,1.82292 -0.0781,5.98959 0,0.6901 -0.48177,1.1849 -0.48177,0.49479 -1.22396,0.49479 -0.74219,0 -1.23698,-0.49479 -0.48177,-0.4948 -0.48177,-1.1849 v -3.63282 q 0,-2.01823 0.26042,-5.97657 0.24739,-4.02344 0.26041,-6.00261 0.013,-3.38542 1.90105,-3.24219 0.44271,-0.11719 1.22396,-0.16927 0.78125,-0.0651 1.90104,-0.0651 2.55209,0 4.79168,1.65365 2.48698,1.84896 2.48698,4.50521 0,3.33334 -2.64323,5.29949 -2.34376,1.73177 -5.58595,1.73177 z m 0.65104,-9.83074 q -0.41666,0 -0.74218,0.013 -0.31251,0 -0.53386,0.026 0,0.61198 -0.013,1.83594 -0.026,1.44532 -0.2474,4.50522 0.66407,0.10416 0.88542,0.10416 2.03125,0 3.3724,-0.96354 1.43229,-1.02865 1.43229,-2.72136 0,-1.10677 -1.34114,-1.96614 -1.28907,-0.83334 -2.81251,-0.83334 z"
         style="font-weight:bold;font-family:'Comic Sans MS';-inkscape-font-specification:'Comic Sans MS Bold'"
         id="path52100" />
      <path
         d="m 163.88806,304.13161 q -1.02865,-0.0391 -2.07032,-2.42188 -0.6901,-1.53646 -1.18489,-3.54167 -0.96355,0.14323 -3.15105,0.28646 -2.05729,0.14323 -3.15104,0.33854 -0.59896,1.4323 -2.08334,4.30991 -0.57292,0.9375 -1.58854,0.9375 -0.71615,0 -1.28907,-0.48177 -0.57292,-0.4948 -0.57292,-1.25001 0,-0.66406 1.90105,-4.50521 -0.18229,-0.40365 -0.15625,-0.75521 0.0521,-0.625 1.26302,-0.97656 1.84896,-3.20313 4.11459,-6.64064 3.25521,-4.9349 4.01042,-4.9349 1.43229,0 1.91407,1.73177 0.26041,1.39324 0.82031,4.1797 0.79427,3.75 1.94011,8.58074 0.0911,0.36458 0.66406,1.71875 0.46875,1.11979 0.46875,1.67969 0,0.75521 -0.57292,1.26302 -0.55989,0.50781 -1.27604,0.48177 z m -4.85678,-13.35939 q -1.01562,1.7448 -2.79948,4.75261 0.58594,-0.13021 1.82292,-0.20833 1.45833,-0.0912 1.83594,-0.14323 -0.3125,-1.69271 -0.85938,-4.40105 z"
         style="font-weight:bold;font-family:'Comic Sans MS';-inkscape-font-specification:'Comic Sans MS Bold'"
         id="path52102" />
      <path
         d="m 187.70319,300.53786 q 0,0.65104 -0.22135,2.05729 -0.26042,1.67969 -1.90105,1.67969 -0.91146,0 -2.05729,-1.02864 -5.01303,-4.51824 -11.31512,-12.66929 -0.0781,3.38542 -0.0781,4.15365 0,1.02865 0.0391,3.09896 0.0521,2.07032 0.0521,3.09896 0,3.84115 -1.875,3.84115 -0.95052,0 -1.52344,-0.58593 -0.50781,-0.52084 -0.50781,-1.26303 0,-0.52083 0.0781,-1.57552 0.0911,-1.05469 0.0911,-1.57552 0,-0.76823 0.0521,-2.30469 0.0521,-1.53646 0.0521,-2.30469 0,-0.82032 -0.0391,-2.47396 -0.0391,-1.65365 -0.0391,-2.47397 0,-0.78125 -0.15625,-2.33073 -0.15625,-1.54948 -0.15625,-2.33073 0,-0.78125 0.66406,-1.39323 0.67709,-0.61198 1.53646,-0.61198 0.96355,0 2.13542,1.66667 5.91147,8.43751 11.66668,13.76304 0.013,-0.41667 0.013,-1.97917 0,-6.41928 -0.13021,-8.65887 -0.026,-0.3776 -0.16927,-1.40625 -0.13021,-0.91146 -0.13021,-1.43229 0,-1.79688 1.90104,-1.79688 2.1224,0 2.1224,6.54949 0,0.14323 -0.026,2.05729 -0.0781,6.61459 -0.0781,8.22918 z"
         style="font-weight:bold;font-family:'Comic Sans MS';-inkscape-font-specification:'Comic Sans MS Bold'"
         id="path52104" />
      <path
         d="m 201.2579,288.35034 q -0.67709,0 -3.71095,-0.36458 -0.18229,2.39584 -0.18229,6.36719 l -0.013,5.84637 q 1.73177,-0.0391 3.52865,-0.0391 0.78125,0 1.28907,0.52084 0.52083,0.52083 0.52083,1.25 0,0.72917 -0.52083,1.25 -0.50782,0.50781 -1.28907,0.50781 -0.72917,0 -2.1875,0.0391 -1.45834,0.026 -2.1875,0.026 -0.85938,0 -2.57813,0.22135 -1.71875,0.23438 -2.57813,0.23438 -0.78125,0 -1.30208,-0.50781 -0.50782,-0.52084 -0.50782,-1.25001 0,-0.72916 0.50782,-1.25 0.52083,-0.52083 1.30208,-0.52083 0.88542,0 2.33073,-0.19531 -0.026,-1.53647 -0.026,-5.88543 0,-3.54167 0.26042,-6.75782 l -2.82553,0.0781 q -0.78125,0 -1.3151,-0.50782 -0.52084,-0.50781 -0.52084,-1.26302 0,-0.76823 0.52084,-1.25 0.48177,-0.44271 1.18489,-0.50782 1.14584,-0.10416 3.98438,-0.10416 2.55209,0 6.57553,0.54687 1.60157,0.22136 1.60157,1.79688 0,0.83334 -0.65104,1.31511 -0.53386,0.40364 -1.21094,0.40364 z"
         style="font-weight:bold;font-family:'Comic Sans MS';-inkscape-font-specification:'Comic Sans MS Bold'"
         id="path52106" />
      <path
         d="m 217.7423,289.87378 q -1.17188,0 -1.73178,-1.23698 -0.26041,-0.58594 -0.52083,-0.70312 -0.19531,-0.0911 -1.02865,-0.0911 -1.64062,0 -3.78906,2.55209 -3.00782,3.56771 -3.00782,6.67969 0,1.41928 0.95052,2.4349 0.95052,1.01563 2.27865,1.01563 1.28906,0 2.61719,-0.67709 0.46875,-0.24739 1.97917,-1.27604 1.01563,-0.67708 1.53646,-0.67708 0.78125,0 1.32813,0.57291 0.50781,0.53386 0.50781,1.22396 0,0.76823 -0.67708,1.34115 -3.58074,3.02084 -7.29168,3.02084 -2.92969,0 -4.94792,-2.13542 -1.92709,-2.0573 -1.92709,-4.84376 0,-4.36198 3.81511,-8.90626 3.24219,-3.85417 6.62761,-3.85417 0.57292,0 1.02865,0.0391 0.46875,0.0391 0.82031,0.11719 0.57292,-0.5599 1.38021,-0.5599 1.32813,0 1.64063,1.52344 0.22136,1.09375 0.22136,2.55209 0,0.65104 -0.37761,1.1849 -0.49479,0.70312 -1.43229,0.70312 z"
         style="font-weight:bold;font-family:'Comic Sans MS';-inkscape-font-specification:'Comic Sans MS Bold'"
         id="path52108" />
    </g>
  </g>
</svg>
